<svg xmlns="http://www.w3.org/2000/svg" width="20.683" height="20.683" viewBox="0 0 20.683 20.683">
  <g id="Icon_ionic-ios-menu" data-name="Icon ionic-ios-menu" transform="translate(-8 -10.663)">
    <path id="Path_2" data-name="Path 2" d="M30.375,19.125H5.625A1.128,1.128,0,0,1,4.5,18h0a1.128,1.128,0,0,1,1.125-1.125h24.75A1.128,1.128,0,0,1,31.5,18h0A1.128,1.128,0,0,1,30.375,19.125Z" transform="translate(18.341 -4.451) rotate(45)" fill="#fff"/>
    <path id="Path_3" data-name="Path 3" d="M30.375,25.875H5.625A1.128,1.128,0,0,1,4.5,24.75h0a1.128,1.128,0,0,1,1.125-1.125h24.75A1.128,1.128,0,0,1,31.5,24.75h0A1.128,1.128,0,0,1,30.375,25.875Z" transform="translate(-11.887 16.232) rotate(-45)" fill="#fff"/>
  </g>
</svg>
