<svg xmlns="http://www.w3.org/2000/svg" width="23.446" height="23.446" viewBox="0 0 23.446 23.446">
  <path id="Icon_awesome-facebook-square" data-name="Icon awesome-facebook-square" d="M20.934,2.25H2.512A2.512,2.512,0,0,0,0,4.762V23.184A2.512,2.512,0,0,0,2.512,25.7H9.695V17.725H6.4V13.973h3.3v-2.86c0-3.253,1.936-5.049,4.9-5.049a19.974,19.974,0,0,1,2.906.253V9.51H15.866a1.876,1.876,0,0,0-2.115,2.027v2.436h3.6l-.576,3.752H13.751V25.7h7.183a2.512,2.512,0,0,0,2.512-2.512V4.762A2.512,2.512,0,0,0,20.934,2.25Z" transform="translate(0 -2.25)" fill="#fff"/>
</svg>
