<svg xmlns="http://www.w3.org/2000/svg" width="24.563" height="24.562" viewBox="0 0 24.563 24.562">
  <path id="Path_63" data-name="Path 63" d="M-853.4-4172.438a6.706,6.706,0,0,1-6.7-6.7V-4190.3a6.706,6.706,0,0,1,6.7-6.7h11.165a6.706,6.706,0,0,1,6.7,6.7v11.165a6.706,6.706,0,0,1-6.7,6.7Zm-4.466-17.863v11.165a4.47,4.47,0,0,0,4.466,4.466h11.165a4.471,4.471,0,0,0,4.466-4.466V-4190.3a4.471,4.471,0,0,0-4.466-4.466H-853.4A4.471,4.471,0,0,0-857.867-4190.3Zm6.15,9.481a5.572,5.572,0,0,1-1.04-6.457,5.584,5.584,0,0,1,2.07-2.25,5.577,5.577,0,0,1,2.915-.823,5.572,5.572,0,0,1,.821.061,5.545,5.545,0,0,1,3.128,1.575,5.543,5.543,0,0,1,1.575,3.128,5.574,5.574,0,0,1-3.012,5.805,5.607,5.607,0,0,1-2.509.6A5.543,5.543,0,0,1-851.717-4180.82Zm.955-5.453a3.344,3.344,0,0,0,.624,3.874,3.326,3.326,0,0,0,2.369.981,3.363,3.363,0,0,0,1.5-.357,3.346,3.346,0,0,0,1.808-3.483,3.331,3.331,0,0,0-2.822-2.822,3.27,3.27,0,0,0-.493-.037A3.331,3.331,0,0,0-850.763-4186.273Z" transform="translate(860.1 4197)" fill="#fff"/>
</svg>
