<svg xmlns="http://www.w3.org/2000/svg" width="19.078" height="7.838" viewBox="0 0 19.078 7.838">
  <path id="Icon_ionic-ios-arrow-round-down" data-name="Icon ionic-ios-arrow-round-down" d="M7.688,15.027a.553.553,0,0,0-.751,0L4.451,17.381V.5A.532.532,0,0,0,3.39.5v16.88L.9,15.019a.557.557,0,0,0-.751,0,.486.486,0,0,0,0,.711l3.388,3.2h0a.6.6,0,0,0,.167.1.529.529,0,0,0,.2.039.547.547,0,0,0,.371-.144l3.388-3.2A.478.478,0,0,0,7.688,15.027Z" transform="translate(0 7.838) rotate(-90)" fill="#fff"/>
</svg>
