<svg xmlns="http://www.w3.org/2000/svg" width="780.6" height="193.26" viewBox="0 0 780.6 193.26">
  <g id="_Group_" data-name="&lt;Group&gt;" transform="translate(-1292.8 -96.04)">
    <g id="_Group_2" data-name="&lt;Group&gt;">
      <path id="_Compound_Path_" data-name="&lt;Compound Path&gt;" d="M1367.4,288.7h-19.6l15.6-73.8h31.2l4.2,46.4h.7l23.2-46.4h31.9L1439,288.7h-19.7l14-56.6h-.7l-30.7,56.6h-17l-6.9-56.6h-.5Z" fill="#c79a69"/>
      <path id="_Compound_Path_2" data-name="&lt;Compound Path&gt;" d="M1494.6,262.8l-5.5,25.9h-19.6l5.5-25.9-16.1-47.9h22.6l7.1,28.5h.7l19.6-28.5h22.8Z" fill="#c79a69"/>
      <path id="_Compound_Path_3" data-name="&lt;Compound Path&gt;" d="M1571.6,288.7h-19.7l15.7-73.8h33.2l9.1,56.7h.8l10.8-56.7h19.7l-15.6,73.8h-33.5l-8.9-56.7h-.8Z" fill="#c79a69"/>
      <path id="_Compound_Path_4" data-name="&lt;Compound Path&gt;" d="M1666.9,244.5h31.4l-2.8,13.7H1664l-3.1,14.4h34.3l-3.5,16.1h-53.9l15.7-73.8h53.2l-3.4,16.2h-33.5Z" fill="#c79a69"/>
      <path id="_Compound_Path_5" data-name="&lt;Compound Path&gt;" d="M1803.5,214.9h19.8l-32,73.8h-28.4l-.2-46.2h-.8l-20.5,46.2h-28.2l-.3-73.8h20l-1.4,56.9h.7l25.9-56.9h20.4l1.2,56.9h.7Z" fill="#c79a69"/>
      <path id="_Compound_Path_6" data-name="&lt;Compound Path&gt;" d="M1912.4,260.8l-.4,2.1c-1.8,8.1-3.3,15.4-11.3,21-7.8,5.5-15.9,5.4-24.5,5.4-20,0-34.5-1-28.8-28l4-19c5.3-24.4,19.1-28,40.8-28,20.2,0,29.2,2.1,24.8,24.2l-.6,2.9h-20.2l.6-2.9c.8-6.6-3.8-7-10.4-7-11.3,0-13.1,3.4-15.3,13.9l-2.4,11.5c-2.4,11-2.8,15.3,9,15.3,8.2,0,12.2-.6,14.1-9.3l.4-2.1Z" fill="#c79a69"/>
      <path id="_Compound_Path_7" data-name="&lt;Compound Path&gt;" d="M1935.3,276l-6.3,12.7h-20.4l37.7-73.8h29.9l6.8,73.8h-20.1l-1.1-12.7Zm23.3-46.3h-.2l-15.9,31.9h18.3Z" fill="#c79a69" fill-rule="evenodd"/>
      <path id="_Compound_Path_8" data-name="&lt;Compound Path&gt;" d="M2003,214.9h38c17,.3,24.6,4,20.6,22.4-2.5,12.3-4.1,19.4-18.7,22.7l-.2.8c8,.3,12.2,4.7,10.5,13l-3.2,14.9h-19.6l2.1-10.3c1.4-5.5-.2-9.3-6.1-9.3h-15.2l-4.1,19.6h-19.7Zm27,37.1c8.5,0,8.9-3.2,10.7-11.6,1.3-6.5.1-8.4-6.4-8.4H2019l-4.2,20Z" fill="#c79a69" fill-rule="evenodd"/>
    </g>
    <g id="_Group_3" data-name="&lt;Group&gt;">
      <path id="_Compound_Path_9" data-name="&lt;Compound Path&gt;" d="M1659,203.4h-3.6l6.7-31.4h14.5a20.078,20.078,0,0,1,4.3.4,5.5,5.5,0,0,1,2.7,1.4,4.529,4.529,0,0,1,1.2,2.8,13.438,13.438,0,0,1-.4,4.4q-.4,1.7-.8,3.1a12.425,12.425,0,0,1-1.2,2.5,6.157,6.157,0,0,1-2.1,1.8,7.932,7.932,0,0,1-3.2.9v.1q2.7.2,3.6,1.6a5.261,5.261,0,0,1,.3,4l-1.8,8.4h-3.5l1.4-6.7a13.516,13.516,0,0,0,.3-2.6,3.6,3.6,0,0,0-.4-1.8,2.146,2.146,0,0,0-1.3-1.1,7.1,7.1,0,0,0-2.6-.4h-11.4Zm14.3-15.7a11.432,11.432,0,0,0,3.3-.4,4.976,4.976,0,0,0,2.1-1.2,5.934,5.934,0,0,0,1.3-2.1,20.694,20.694,0,0,0,.9-3.3q.3-1.5.4-2.5a2.585,2.585,0,0,0-.5-1.7,2.775,2.775,0,0,0-1.6-1,14.239,14.239,0,0,0-3.3-.3H1665l-2.7,12.5Z" fill="#fff" fill-rule="evenodd"/>
      <path id="_Compound_Path_10" data-name="&lt;Compound Path&gt;" d="M1695,185.8h15.9l-.6,2.9h-15.9l-2.4,11.5h16.6l-.7,3.2h-20.1l6.6-31.4h20.2l-.7,3.1h-16.6Z" fill="#fff"/>
      <path id="_Compound_Path_11" data-name="&lt;Compound Path&gt;" d="M1743.6,203.4h-5.9l-11.5-28.5h-.1l-6,28.5h-3.6l6.6-31.4h5.9l11.5,28.6h.1l6-28.6h3.6Z" fill="#fff"/>
      <path id="_Compound_Path_12" data-name="&lt;Compound Path&gt;" d="M1764.5,203.4h-3.6l6-28.3h-10.2l.7-3.1h23.9l-.7,3.1h-10.2Z" fill="#fff"/>
      <path id="_Compound_Path_13" data-name="&lt;Compound Path&gt;" d="M1805.4,196.7l-3.9,6.7h-3.7l18.1-31.4h5l5.1,31.4h-3.7l-1.1-6.7Zm12.5-21.8L1807,193.8h13.9Z" fill="#fff" fill-rule="evenodd"/>
      <path id="_Compound_Path_14" data-name="&lt;Compound Path&gt;" d="M1860.3,203.4h-5.8l-11.6-28.5-6.1,28.5h-3.6l6.7-31.4h5.8l11.5,28.6h.1l6.1-28.6h3.5Z" fill="#fff"/>
      <path id="_Compound_Path_15" data-name="&lt;Compound Path&gt;" d="M1876.6,172h15.3q1,0,2.1.1a12.75,12.75,0,0,1,2.3.4,6.156,6.156,0,0,1,2,1.2,5.684,5.684,0,0,1,1.6,2.1,9.247,9.247,0,0,1,.7,3.4,19.933,19.933,0,0,1-.5,4.9l-1.6,7.5q-.2.8-.5,1.9a14.227,14.227,0,0,1-.9,2.5,17.363,17.363,0,0,1-1.5,2.6,12.376,12.376,0,0,1-2.2,2.4,10.51,10.51,0,0,1-3.2,1.7,11.248,11.248,0,0,1-4.1.7H1870Zm9.3,28.2a9.713,9.713,0,0,0,3.9-.7,7.122,7.122,0,0,0,2.5-1.9,8.339,8.339,0,0,0,1.7-2.9,26.144,26.144,0,0,0,1-3.8l1.8-8.2q.1-.7.2-2a6.6,6.6,0,0,0-.3-2.5,4.921,4.921,0,0,0-1.6-2.2,5.129,5.129,0,0,0-3.3-.9h-12.3l-5.3,25.1Z" fill="#fff" fill-rule="evenodd"/>
      <path id="_Compound_Path_16" data-name="&lt;Compound Path&gt;" d="M1928.2,200.2h15.9l-.6,3.2h-19.6l6.7-31.4h3.5Z" fill="#fff"/>
      <path id="_Compound_Path_17" data-name="&lt;Compound Path&gt;" d="M1957.3,185.8h15.9l-.6,2.9h-15.9l-2.4,11.5h16.6l-.7,3.2H1950l6.7-31.4h20.1l-.6,3.1h-16.6Z" fill="#fff"/>
      <path id="_Compound_Path_18" data-name="&lt;Compound Path&gt;" d="M1983.7,196.7l-3.8,6.7h-3.7l18-31.4h5l5.1,31.4h-3.7l-1-6.7Zm12.5-21.8-10.9,18.9h13.9Z" fill="#fff" fill-rule="evenodd"/>
      <path id="_Compound_Path_19" data-name="&lt;Compound Path&gt;" d="M2021.9,188.7q-1.5-.1-2.7-.3a8.708,8.708,0,0,1-2.2-.6,4.438,4.438,0,0,1-1.6-1.3,4.1,4.1,0,0,1-.7-2.2,13.465,13.465,0,0,1,.3-3.4,16.5,16.5,0,0,1,1.8-5,7.236,7.236,0,0,1,2.8-2.7,8.519,8.519,0,0,1,3.8-1.2q2.3-.2,5.2-.2a34.271,34.271,0,0,1,4.6.1,7.074,7.074,0,0,1,3.4,1.1,3.762,3.762,0,0,1,1.8,2.6,11.484,11.484,0,0,1-.4,5h-3.6a12.486,12.486,0,0,0,.3-3.2,1.946,1.946,0,0,0-.7-1.7,4.1,4.1,0,0,0-2.2-.7q-1.5-.1-4-.1a35.278,35.278,0,0,0-4.2.2,6.646,6.646,0,0,0-2.6.8,2.775,2.775,0,0,0-1.4,1.6,12.933,12.933,0,0,0-.9,2.6,8.513,8.513,0,0,0-.1,3.4,2.484,2.484,0,0,0,1.2,1.6,6.793,6.793,0,0,0,2.6.6q1.6,0,3.8.1,2.8.1,4.9.3a7.708,7.708,0,0,1,3.3,1,3.588,3.588,0,0,1,1.5,2.5,11.8,11.8,0,0,1-.3,4.9,14.862,14.862,0,0,1-1.9,5.1,7.737,7.737,0,0,1-2.9,2.8,11.74,11.74,0,0,1-4,1q-2.3.2-5.2.2a39.076,39.076,0,0,1-5.2-.3,7.265,7.265,0,0,1-3.5-1.3,4.27,4.27,0,0,1-1.4-3,15,15,0,0,1,.8-5.4h3.5a19.257,19.257,0,0,0-.6,4,2.34,2.34,0,0,0,.8,2,3.335,3.335,0,0,0,2.2.8q1.5.1,4,.1,2.6,0,4.2-.1a6.643,6.643,0,0,0,2.8-.7,4.048,4.048,0,0,0,1.7-1.8,14.1,14.1,0,0,0,1.2-3.6,10.03,10.03,0,0,0,.2-3.3,2.118,2.118,0,0,0-1.3-1.5,6.307,6.307,0,0,0-2.5-.4q-1.6,0-3.7-.2-1.5-.1-2.9-.2Z" fill="#fff"/>
      <path id="_Compound_Path_20" data-name="&lt;Compound Path&gt;" d="M2048.2,185.8h15.9l-.6,2.9h-15.9l-2.4,11.5h16.6l-.7,3.2h-20.2l6.7-31.4h20.1l-.6,3.1h-16.6Z" fill="#fff"/>
    </g>
    <path id="_Path_" data-name="&lt;Path&gt;" d="M1314,288.5l-21.2-39.9s51.3-79.4,180.8-80.5c0,0,87.5-1.8,114.9-1.8l44.6,31.2s-244.5-60.6-333,51.8Z" fill="#fff"/>
    <path id="_Path_2" data-name="&lt;Path&gt;" d="M1642.7,192.2l-43.9-29.8s54.6-37.6,134.5-55.9c114-26.1,172.1,3.1,242.9,17.7,30.2,6.2,59.1,12.8,97.2,17.4,0,0-39.4,1.1-104.3-11.7-14.3-2.9-93.4-20.2-151-21.4-69.5-1.4-132.5,18.8-192.9,54.8Z" fill="#c79a69"/>
  </g>
</svg>
