<svg xmlns="http://www.w3.org/2000/svg" width="780.5" height="193.26" viewBox="0 0 780.5 193.26">
  <g id="_Group_" data-name="&lt;Group&gt;" transform="translate(-63.5 -96.04)">
    <g id="_Group_2" data-name="&lt;Group&gt;">
      <path id="_Compound_Path_" data-name="&lt;Compound Path&gt;" d="M138.1,288.7H118.4l15.7-73.8h31.1l4.3,46.4h.7l23.2-46.4h31.9l-15.6,73.8H190l14-56.6h-.7l-30.7,56.6h-17l-6.9-56.6h-.6Z" fill="#c79a69"/>
      <path id="_Compound_Path_2" data-name="&lt;Compound Path&gt;" d="M265.3,262.8l-5.5,25.9H240.1l5.5-25.9-16-47.9h22.5l7.2,28.5h.7l19.6-28.5h22.8Z" fill="#c79a69"/>
      <path id="_Compound_Path_3" data-name="&lt;Compound Path&gt;" d="M342.3,288.7H322.6l15.6-73.8h33.3l9.1,56.7h.8l10.8-56.7h19.7l-15.7,73.8H362.7L353.9,232h-.8Z" fill="#c79a69"/>
      <path id="_Compound_Path_4" data-name="&lt;Compound Path&gt;" d="M437.5,244.5H469l-2.9,13.7H434.7l-3.1,14.4h34.2l-3.4,16.1H408.5l15.6-73.8h53.2L474,231.1H440.5Z" fill="#c79a69"/>
      <path id="_Compound_Path_5" data-name="&lt;Compound Path&gt;" d="M574.2,214.9h19.7L562,288.7H533.6l-.2-46.2h-.8L512,288.7H483.9l-.3-73.8h20l-1.4,56.9h.7l25.8-56.9h20.5l1.2,56.9h.7Z" fill="#c79a69"/>
      <path id="_Compound_Path_6" data-name="&lt;Compound Path&gt;" d="M683.1,260.8l-.4,2.1c-1.8,8.1-3.4,15.4-11.3,21-7.8,5.5-16,5.4-24.5,5.4-20.1,0-34.5-1-28.8-28l4-19c5.2-24.4,19.1-28,40.7-28,20.3,0,29.2,2.1,24.9,24.2l-.6,2.9H666.9l.5-2.9c.8-6.6-3.7-7-10.4-7-11.2,0-13.1,3.4-15.2,13.9l-2.5,11.5c-2.3,11-2.7,15.3,9.1,15.3,8.1,0,12.2-.6,14-9.3l.4-2.1Z" fill="#c79a69"/>
      <path id="_Compound_Path_7" data-name="&lt;Compound Path&gt;" d="M706,276l-6.3,12.7H679.2L717,214.9h29.9l6.8,73.8H733.6L732.4,276Zm23.3-46.3h-.2l-15.8,31.9h18.3Z" fill="#c79a69" fill-rule="evenodd"/>
      <path id="_Compound_Path_8" data-name="&lt;Compound Path&gt;" d="M773.7,214.9h37.9c17.1.3,24.6,4,20.7,22.4-2.6,12.3-4.1,19.4-18.8,22.7l-.2.8c8.1.3,12.3,4.7,10.5,13l-3.1,14.9H801l2.2-10.3c1.4-5.5-.2-9.3-6.1-9.3H781.9l-4.2,19.6H758.1Zm27,37.1c8.5,0,8.9-3.2,10.6-11.6,1.4-6.5.1-8.4-6.4-8.4H789.7l-4.2,20Z" fill="#c79a69" fill-rule="evenodd"/>
    </g>
    <g id="_Group_3" data-name="&lt;Group&gt;">
      <path id="_Compound_Path_9" data-name="&lt;Compound Path&gt;" d="M429.7,203.4h-3.6l6.7-31.4h14.4a19.231,19.231,0,0,1,4.3.4,5.563,5.563,0,0,1,2.8,1.4,4.127,4.127,0,0,1,1.1,2.8,15.045,15.045,0,0,1-.3,4.4q-.4,1.7-.8,3.1a9.859,9.859,0,0,1-1.3,2.5,6.478,6.478,0,0,1-2,1.8,8.625,8.625,0,0,1-3.2.9v.1q2.6.2,3.5,1.6a5.543,5.543,0,0,1,.4,4l-1.8,8.4h-3.5l1.4-6.7a13.523,13.523,0,0,0,.3-2.6,3.6,3.6,0,0,0-.4-1.8,2.167,2.167,0,0,0-1.4-1.1,6.307,6.307,0,0,0-2.5-.4H432.3ZM444,187.7a11.862,11.862,0,0,0,3.4-.4,4.976,4.976,0,0,0,2.1-1.2,5.933,5.933,0,0,0,1.3-2.1q.4-1.3.9-3.3a13.186,13.186,0,0,0,.3-2.5,2.25,2.25,0,0,0-.4-1.7,2.84,2.84,0,0,0-1.7-1,12.928,12.928,0,0,0-3.2-.3h-11l-2.6,12.5Z" fill="#2c2e35" fill-rule="evenodd"/>
      <path id="_Compound_Path_10" data-name="&lt;Compound Path&gt;" d="M465.7,185.8h15.9l-.6,2.9H465.1l-2.4,11.5h16.6l-.7,3.2H458.4l6.7-31.4h20.1l-.6,3.1H468Z" fill="#2c2e35"/>
      <path id="_Compound_Path_11" data-name="&lt;Compound Path&gt;" d="M514.2,203.4h-5.8l-11.5-28.5h-.1l-6.1,28.5h-3.5l6.6-31.4h5.9l11.5,28.6,6.1-28.6h3.6Z" fill="#2c2e35"/>
      <path id="_Compound_Path_12" data-name="&lt;Compound Path&gt;" d="M535.1,203.4h-3.5l6-28.3H527.4l.7-3.1h23.8l-.6,3.1H541.1Z" fill="#2c2e35"/>
      <path id="_Compound_Path_13" data-name="&lt;Compound Path&gt;" d="M576.1,196.7l-3.9,6.7h-3.7L586.6,172h5l5,31.4H593l-1.1-6.7Zm12.5-21.8-10.9,18.9h13.9Z" fill="#2c2e35" fill-rule="evenodd"/>
      <path id="_Compound_Path_14" data-name="&lt;Compound Path&gt;" d="M631,203.4h-5.8l-11.6-28.5h-.1l-6,28.5h-3.6l6.7-31.4h5.8l11.5,28.6h.1l6.1-28.6h3.5Z" fill="#2c2e35"/>
      <path id="_Compound_Path_15" data-name="&lt;Compound Path&gt;" d="M647.3,172h15.3q.9,0,2.1.1a12.729,12.729,0,0,1,2.2.4,5.956,5.956,0,0,1,2.1,1.2,5.682,5.682,0,0,1,1.6,2.1,9.249,9.249,0,0,1,.7,3.4,19.936,19.936,0,0,1-.5,4.9l-1.6,7.5q-.2.8-.5,1.9-.4,1.2-.9,2.5a17.352,17.352,0,0,1-1.5,2.6A15.609,15.609,0,0,1,664,201a9.284,9.284,0,0,1-3.1,1.7,11.248,11.248,0,0,1-4.1.7H640.7Zm9.2,28.2a9.28,9.28,0,0,0,3.9-.7,6.932,6.932,0,0,0,2.6-1.9,9.329,9.329,0,0,0,1.6-2.9,37.7,37.7,0,0,0,1.1-3.8l1.8-8.2q.1-.7.2-2a5.623,5.623,0,0,0-.4-2.5,5.207,5.207,0,0,0-1.5-2.2,5.315,5.315,0,0,0-3.4-.9H650.2l-5.4,25.1Z" fill="#2c2e35" fill-rule="evenodd"/>
      <path id="_Compound_Path_16" data-name="&lt;Compound Path&gt;" d="M698.8,200.2h16l-.7,3.2H694.6l6.7-31.4h3.5Z" fill="#2c2e35"/>
      <path id="_Compound_Path_17" data-name="&lt;Compound Path&gt;" d="M728,185.8h15.9l-.7,2.9H727.3l-2.4,11.5h16.6l-.6,3.2H720.7l6.6-31.4h20.2l-.7,3.1H730.2Z" fill="#2c2e35"/>
      <path id="_Compound_Path_18" data-name="&lt;Compound Path&gt;" d="M754.4,196.7l-3.8,6.7h-3.8L764.9,172h5l5.1,31.4h-3.7l-1-6.7Zm12.5-21.8-11,18.9h13.9Z" fill="#2c2e35" fill-rule="evenodd"/>
      <path id="_Compound_Path_19" data-name="&lt;Compound Path&gt;" d="M792.5,188.7q-1.4-.1-2.7-.3a10.608,10.608,0,0,1-2.2-.6,4.707,4.707,0,0,1-1.5-1.3,4.1,4.1,0,0,1-.7-2.2,9.224,9.224,0,0,1,.3-3.4,16.5,16.5,0,0,1,1.8-5,7.478,7.478,0,0,1,2.7-2.7,9.238,9.238,0,0,1,3.9-1.2q2.2-.2,5.1-.2a35.519,35.519,0,0,1,4.7.1,7.074,7.074,0,0,1,3.4,1.1,3.862,3.862,0,0,1,1.7,2.6,11.484,11.484,0,0,1-.4,5h-3.5a12.485,12.485,0,0,0,.3-3.2,2.185,2.185,0,0,0-.8-1.7,3.735,3.735,0,0,0-2.2-.7q-1.5-.1-4-.1a35.279,35.279,0,0,0-4.2.2,5.81,5.81,0,0,0-2.5.8,3.2,3.2,0,0,0-1.5,1.6,10.023,10.023,0,0,0-.8,2.6,7.8,7.8,0,0,0-.2,3.4,2.421,2.421,0,0,0,1.3,1.6,6.794,6.794,0,0,0,2.6.6q1.6,0,3.8.1,2.8.1,4.8.3a7.154,7.154,0,0,1,3.3,1,3.48,3.48,0,0,1,1.6,2.5,14.671,14.671,0,0,1-.3,4.9,18.243,18.243,0,0,1-1.9,5.1,7.737,7.737,0,0,1-2.9,2.8,11.741,11.741,0,0,1-4,1q-2.3.2-5.3.2a39.077,39.077,0,0,1-5.2-.3,6.624,6.624,0,0,1-3.4-1.3,4.269,4.269,0,0,1-1.4-3,16.071,16.071,0,0,1,.7-5.4h3.6a19.261,19.261,0,0,0-.6,4,2.509,2.509,0,0,0,.7,2,3.789,3.789,0,0,0,2.3.8q1.5.1,4,.1t4.2-.1a6.643,6.643,0,0,0,2.8-.7,4.933,4.933,0,0,0,1.7-1.8,18.041,18.041,0,0,0,1.1-3.6,7.339,7.339,0,0,0,.2-3.3,1.87,1.87,0,0,0-1.2-1.5,6.773,6.773,0,0,0-2.5-.4q-1.6,0-3.7-.2l-3-.2Z" fill="#2c2e35"/>
      <path id="_Compound_Path_20" data-name="&lt;Compound Path&gt;" d="M818.9,185.8h15.9l-.7,2.9H818.3l-2.5,11.5h16.6l-.6,3.2H811.6l6.7-31.4h20.1l-.7,3.1H821.1Z" fill="#2c2e35"/>
    </g>
    <path id="_Path_" data-name="&lt;Path&gt;" d="M84.6,288.5,63.5,248.6s51.3-79.4,180.7-80.5c0,0,87.6-1.8,114.9-1.8l44.7,31.2s-244.5-60.6-333,51.8Z" fill="#2c2e35"/>
    <path id="_Path_2" data-name="&lt;Path&gt;" d="M413.3,192.2l-43.9-29.8s54.7-37.6,134.6-55.9c114-26.1,172.1,3.1,242.8,17.7C777,130.4,806,137,844,141.6c0,0-39.4,1.1-104.2-11.7-14.3-2.9-93.5-20.2-151-21.4-69.5-1.4-132.6,18.8-193,54.8Z" fill="#c79a69"/>
  </g>
</svg>
