<svg xmlns="http://www.w3.org/2000/svg" width="60.948" height="56.033" viewBox="0 0 60.948 56.033">
  <g id="clean-car" transform="translate(-8 480)">
    <path id="Path_16" data-name="Path 16" d="M219.871-479.422a4.775,4.775,0,0,1-.971,2.089,4.747,4.747,0,0,1-2.31,1.2l-.59.086v1.917l.578.086a4.17,4.17,0,0,1,2.015.909,4.71,4.71,0,0,1,1.278,2.372l.086.59h1.917l.086-.578a3.91,3.91,0,0,1,3.293-3.293l.578-.086v-1.917l-.578-.086a4.7,4.7,0,0,1-2.384-1.278,4.17,4.17,0,0,1-.909-2.015l-.086-.578h-1.917Zm1.806,3.539.8.8-.786.774-.774.786-.774-.786-.786-.774.75-.786c.418-.418.75-.786.762-.8S221.235-476.326,221.677-475.884Z" transform="translate(-182.441 0)" fill="#c59158"/>
    <path id="Path_17" data-name="Path 17" d="M91.871-407.422a4.776,4.776,0,0,1-.971,2.089,4.747,4.747,0,0,1-2.31,1.2l-.59.086v1.917l.578.086a4.17,4.17,0,0,1,2.015.909,4.71,4.71,0,0,1,1.278,2.372l.086.59h1.917l.086-.578a3.91,3.91,0,0,1,3.293-3.293l.578-.086v-1.917l-.578-.086a4.7,4.7,0,0,1-2.384-1.278,4.17,4.17,0,0,1-.909-2.015L93.874-408H91.957Zm1.806,3.539.8.8-.786.774-.774.786-.774-.786-.786-.774.75-.786c.418-.418.75-.786.762-.8S93.235-404.326,93.677-403.884Z" transform="translate(-70.17 -63.153)" fill="#c59158"/>
    <path id="Path_18" data-name="Path 18" d="M347.871-407.422a4.775,4.775,0,0,1-.971,2.089,4.747,4.747,0,0,1-2.31,1.2l-.59.086v1.917l.578.086a4.17,4.17,0,0,1,2.015.909,4.71,4.71,0,0,1,1.278,2.372l.086.59h1.917l.086-.578a3.91,3.91,0,0,1,3.293-3.293l.578-.086v-1.917l-.578-.086a4.7,4.7,0,0,1-2.384-1.278,4.17,4.17,0,0,1-.909-2.015l-.086-.578h-1.917Zm1.806,3.539.8.8-.786.774-.774.786-.774-.786-.786-.774.75-.786c.418-.418.75-.786.762-.8S349.235-404.326,349.677-403.884Z" transform="translate(-294.713 -63.153)" fill="#c59158"/>
    <path id="Path_19" data-name="Path 19" d="M34.357-319.658c-8.995.627-9.191.651-11.121,1.475a11.337,11.337,0,0,0-3.883,2.63,13.75,13.75,0,0,0-3.133,4.51,10.716,10.716,0,0,1-.86,1.573c-.037,0-.135-.135-.209-.307-.123-.27-.086-.43.283-1.167.6-1.2.578-1.364-.344-2.3l-.786-.774h-2.3a14.29,14.29,0,0,0-2.544.123A9.331,9.331,0,0,0,8-311c0,.246.209.541.774,1.118l.786.774h3.723l.233.467.246.467-1.241.614-1.241.6-1.143,1.72-1.155,1.72v6.648c0,4.6.037,6.783.135,7.066a3.318,3.318,0,0,0,.492.872c.344.43.356.516.356,1.72a3.594,3.594,0,0,0,.295,1.88,2.891,2.891,0,0,0,1.548,1.524c.5.233.8.258,3.072.258,2.384,0,2.556-.012,3.133-.295a3.113,3.113,0,0,0,1.524-1.524c.184-.455.135-.442,2.027-.258l1.364.135,1.585-.688a18.464,18.464,0,0,1,1.733-.688c.086,0,.246.221.369.5.418.909-.492.848,11.833.848,7.422,0,11.182-.037,11.342-.123a2.4,2.4,0,0,0,.541-.737l.307-.6,1.683.737,1.7.737,1.29-.123c1.929-.2,1.929-.2,2.077.27a3.228,3.228,0,0,0,1.708,1.61,10.426,10.426,0,0,0,3.023.2c2.224,0,2.531-.037,3.023-.258a2.891,2.891,0,0,0,1.548-1.524,3.594,3.594,0,0,0,.295-1.88c0-1.2.012-1.29.356-1.72a3.318,3.318,0,0,0,.492-.872c.1-.283.135-2.47.135-7.066v-6.648l-1.155-1.72-1.143-1.72-1.241-.6-1.241-.614.246-.467.233-.467h3.723l.786-.774c.565-.578.774-.872.774-1.118a9.331,9.331,0,0,0-1.462-2.9,14.29,14.29,0,0,0-2.544-.123h-2.3l-.786.774c-.922.934-.946,1.094-.344,2.3.369.737.406.9.283,1.167-.074.172-.172.307-.209.307a10.716,10.716,0,0,1-.86-1.573,13.888,13.888,0,0,0-3.011-4.4,12.038,12.038,0,0,0-6.832-3.551c-1.057-.184-11.673-.934-12.743-.909C37.823-319.892,36.115-319.781,34.357-319.658Zm9.707,2.077c3.109.2,6.119.455,6.685.553a10.982,10.982,0,0,1,5.616,2.949,12.6,12.6,0,0,1,2.433,3.588l.688,1.389H17.462l.688-1.389A11.158,11.158,0,0,1,21.664-315a10.791,10.791,0,0,1,6.242-2.224c1.708-.135,9.486-.676,10.137-.713C38.253-317.95,40.956-317.791,44.065-317.582Zm-30.474,5.652a.765.765,0,0,1-.123.492l-.2.369H11.809a5.136,5.136,0,0,1-1.536-.123.765.765,0,0,1,.123-.491l.2-.369h1.462A5.135,5.135,0,0,1,13.591-311.929Zm52.961.246a.765.765,0,0,1,.123.491,5.136,5.136,0,0,1-1.536.123H63.676l-.2-.369a.765.765,0,0,1-.123-.492,5.136,5.136,0,0,1,1.536-.123h1.462Zm-10.875,7.557-3.011,3.011-3.219.922-3.219.922H42.652l-.983-.492-.983-.491H36.262l-.983.491-.983.492H30.733l-3.219-.922-3.232-.934-.786-.823c-.442-.455-1.733-1.806-2.875-3.01l-2.077-2.175H58.687Zm-36.188.823c1.941,2.052,3.649,3.8,3.785,3.871s1.831.6,3.736,1.143l3.465.983h4.313l.983-.492.983-.492h3.441l.983.492.983.492h4.362l3.613-1.032,3.613-1.032,3.772-3.772,3.772-3.772,1.524.762,1.536.762.823,1.253L66-302.886v3.183l-2.236,2.224-2.249,2.224-6.144.946-6.144.934H27.845l-6.205-.934-6.205-.946L13.2-297.479,10.949-299.7v-3.183l.823-1.253.823-1.253,1.61-.8c.872-.442,1.634-.811,1.683-.811S17.56-305.343,19.489-303.3Zm-5.456,9.732c-2.04,2.679-2.04,2.691-2.1,3.441l-.061.737-.455-.442-.467-.43v-6.611l1.6,1.6A7.348,7.348,0,0,1,14.033-293.571ZM66-293.547v3.281l-.455.43-.467.442-.061-.737c-.061-.688-.123-.8-1.13-2.138l-1.069-1.413,1.561-1.573c.86-.86,1.573-1.561,1.585-1.561S66-295.341,66-293.547Zm-43.991,1.278,5.566.86H49.41l5.591-.86c3.072-.479,5.628-.86,5.689-.86a14.491,14.491,0,0,1,1.229,1.524l1.13,1.511v.885c0,.614-.049.872-.147.872s-2.04.2-4.338.418l-4.178.43L51.081-288.9a28.623,28.623,0,0,0-3.4-1.315,9.674,9.674,0,0,0-.7,1.683c.025.012.418.184.885.393a2.238,2.238,0,0,1,.823.479c-.012.172-20.41.172-20.41,0a2.426,2.426,0,0,1,.836-.479c.455-.2.836-.381.86-.393a9.674,9.674,0,0,0-.7-1.683,28.324,28.324,0,0,0-3.379,1.315L22.6-287.489l-4.129-.43c-2.273-.233-4.239-.418-4.35-.418-.2,0-.221-.123-.221-.872v-.885l1.13-1.511a10.363,10.363,0,0,1,1.266-1.524C16.38-293.129,18.948-292.748,22.008-292.269Zm-7.373,5.96c1.118.1,2.249.221,2.519.27l.479.061-.283.233c-.258.209-.516.233-2.433.233-2.163,0-2.507-.061-2.826-.479a1.169,1.169,0,0,1-.16-.6V-287l.344.246C12.534-286.555,13.026-286.469,14.635-286.309Zm50.257.184c-.221.541-.565.614-2.875.614-1.917,0-2.163-.025-2.421-.233l-.295-.233.43-.074c.233-.037,1.376-.147,2.519-.258a6.4,6.4,0,0,0,2.4-.418c.295-.221.307-.221.344.012A1.376,1.376,0,0,1,64.893-286.125Z" transform="translate(0 -140.423)" fill="#fff"/>
    <path id="Path_20" data-name="Path 20" d="M47.088-196.411c-.541.221-.627.565-.786,2.974a21.008,21.008,0,0,0-.061,2.605c.086.356.344.528,3.072,2.187,1.266.774,1.671.958,1.9.9a17.641,17.641,0,0,0,2.126-1.376c1.9-1.352,2.1-1.573,1.868-2.224-.086-.233-1.094-.958-3.736-2.679-1.991-1.29-3.736-2.384-3.871-2.421A.936.936,0,0,0,47.088-196.411Zm3.379,4.055a23.907,23.907,0,0,1,1.991,1.376,5.355,5.355,0,0,1-1.425,1,13,13,0,0,1-1.524-.836l-1.376-.848.074-.614c.037-.344.074-.811.074-1.032s.049-.393.1-.369S49.374-193.069,50.467-192.356Z" transform="translate(-33.522 -248.691)"/>
    <path id="Path_21" data-name="Path 21" d="M399.4-196.825c-.2.1-1.917,1.192-3.809,2.433-2.433,1.61-3.477,2.359-3.551,2.568-.234.639-.037.885,1.868,2.224a17.641,17.641,0,0,0,2.126,1.376c.233.061.639-.123,1.9-.9,2.728-1.659,2.986-1.831,3.072-2.187a25.036,25.036,0,0,0-.393-5.185,1.494,1.494,0,0,0-.823-.516C399.782-197,399.61-196.924,399.4-196.825Zm-.381,3.7.086,1-1.376.836a10.662,10.662,0,0,1-1.511.836,5.355,5.355,0,0,1-1.425-1c.012-.086,4.08-2.752,4.116-2.7A9.63,9.63,0,0,1,399.02-193.127Z" transform="translate(-336.782 -248.216)"/>
    <path id="Path_22" data-name="Path 22" d="M248-135.017v.983h1.966V-136H248Z" transform="translate(-210.509 -301.73)"/>
  </g>
</svg>
