<svg xmlns="http://www.w3.org/2000/svg" width="55.901" height="55.889" viewBox="0 0 55.901 55.889">
  <g id="discount" transform="translate(-0.474 511.776)">
    <path id="Path_23" data-name="Path 23" d="M118.967-511.6a3.093,3.093,0,0,0-1.6,1.148c-.645.9-.645.842-.645,8.843v7.3h-.842a2.449,2.449,0,0,0-2.132.853,2.162,2.162,0,0,0-.459,2.35c.153.448,1.017,1.366,7.073,7.466,4.3,4.329,7.062,7.029,7.335,7.182a2.584,2.584,0,0,0,2.055.033c.251-.12,3.1-2.908,7.335-7.171,6.165-6.2,6.952-7.029,7.116-7.488a2.194,2.194,0,0,0-.459-2.372,2.44,2.44,0,0,0-2.121-.853h-.842l-.033-7.521c-.033-7.368-.033-7.521-.262-8.013a3.288,3.288,0,0,0-1.552-1.6l-.623-.306-9.4-.022C120.213-511.789,119.47-511.778,118.967-511.6Zm19.021,2.121c.612.284.6.055.6,8.614,0,8.4,0,8.352.514,8.592a9.272,9.272,0,0,0,1.607.153,4.883,4.883,0,0,1,1.443.164c.022.055-2.984,3.159-6.679,6.887L128.75-478.3l-6.712-6.777c-3.706-3.728-6.712-6.832-6.69-6.887a4.883,4.883,0,0,1,1.443-.164,9.272,9.272,0,0,0,1.607-.153c.514-.24.514-.2.514-8.614.011-8.472-.011-8.253.558-8.57C119.83-509.658,137.55-509.68,137.987-509.483Z" transform="translate(-100.344 0)" fill="#c59158"/>
    <path id="Path_24" data-name="Path 24" d="M188.41-448.625a3.282,3.282,0,0,0-1.312,5.389,2.955,2.955,0,0,0,2.328.951,2.888,2.888,0,0,0,2.3-.918,3.236,3.236,0,0,0-2.132-5.542A3.284,3.284,0,0,0,188.41-448.625Zm1.629,2.23a1.011,1.011,0,0,1,.164,1.574,1.057,1.057,0,0,1-1.716-1.213A1.1,1.1,0,0,1,190.039-446.395Z" transform="translate(-165.392 -56.136)" fill="#c59158"/>
    <path id="Path_25" data-name="Path 25" d="M219.58-448.739c-.153.142-2.011,3.247-4.121,6.92-2.864,4.963-3.859,6.756-3.859,7.018a1.064,1.064,0,0,0,1.509.984c.317-.142.853-1.017,4.165-6.756,2.088-3.618,3.87-6.756,3.946-6.952a.922.922,0,0,0-.306-1.181A1,1,0,0,0,219.58-448.739Z" transform="translate(-188.047 -55.934)" fill="#c59158"/>
    <path id="Path_26" data-name="Path 26" d="M268.41-368.625a3.282,3.282,0,0,0-1.312,5.389,2.955,2.955,0,0,0,2.328.951,2.888,2.888,0,0,0,2.3-.918,3.236,3.236,0,0,0-2.132-5.542A3.283,3.283,0,0,0,268.41-368.625Zm1.629,2.23a1.011,1.011,0,0,1,.164,1.574,1.057,1.057,0,0,1-1.716-1.213A1.1,1.1,0,0,1,270.039-366.395Z" transform="translate(-236.647 -127.391)" fill="#c59158"/>
    <path id="Path_27" data-name="Path 27" d="M51.855-182.613l-5.673,1.53c-3.006.809-5.5,1.432-5.542,1.388a3.592,3.592,0,0,1-.208-.525,3.6,3.6,0,0,0-3.028-2.022c-.284,0-2.787.317-5.575.711-5.7.8-6.351.831-10.068.547-1.88-.153-2.132-.153-2.427,0a.929.929,0,0,0-.547.951,1.125,1.125,0,0,0,.536.962,44.209,44.209,0,0,0,6.012.437,45.25,45.25,0,0,0,6.646-.711c2.787-.394,5.192-.711,5.345-.711a1.377,1.377,0,0,1,1.246,1.246c0,.339-.667.918-1.552,1.355a72.371,72.371,0,0,1-8.756,3.247,1.2,1.2,0,0,0-.853.525,1.117,1.117,0,0,0,.656,1.662c.732.164,7.379-2.2,10.221-3.629a7.191,7.191,0,0,0,1.4-.984l.634-.612,6.034-1.629c6.843-1.847,6.843-1.847,7.488-1.137a1.126,1.126,0,0,1,.361.721,1.364,1.364,0,0,1-.557,1.093c-.12.066-1.88.842-3.9,1.716-11.369,4.908-15.3,6.548-17.239,7.171-2.634.864-4.132.984-10.6.885l-4.81-.077-.328.284a6.566,6.566,0,0,0-1.028,1.716c-.525,1.082-.765,1.465-.962,1.541-.437.164-11.642.131-11.871-.044-.35-.251-.328-.82.077-2.383,1.323-5.149,3.509-8.373,6.9-10.166,1.093-.579,1.235-.7,1.323-1.137a1.21,1.21,0,0,0-.492-1.148c-1.2-.634-5.007,2.077-6.887,4.919a23.182,23.182,0,0,0-3,7.051c-.426,1.662-.47,2.831-.109,3.509A3.125,3.125,0,0,0,2-162.97c.448.24.459.24,6.843.24,5.859,0,6.428-.011,6.8-.186.787-.372,1.17-.831,1.8-2.143l.6-1.257,4.329.077c6.286.109,8.035-.055,11.019-1.06,1.793-.612,5.455-2.11,11.084-4.537,2.438-1.049,5.509-2.372,6.832-2.93s2.656-1.148,2.973-1.3a3.391,3.391,0,0,0,.24-6.154,3.055,3.055,0,0,0-1.585-.4A6.327,6.327,0,0,0,51.855-182.613Z" transform="translate(0 -293.157)" fill="#fff"/>
    <path id="Path_28" data-name="Path 28" d="M123.507-168.826a1.085,1.085,0,0,0,.5,2.011,1.236,1.236,0,0,0,1.1-.929A1.18,1.18,0,0,0,123.988-169,1.446,1.446,0,0,0,123.507-168.826Z" transform="translate(-109.114 -305.305)"/>
  </g>
</svg>
