<svg xmlns="http://www.w3.org/2000/svg" width="44.648" height="56" viewBox="0 0 44.648 56">
  <g id="piggy-bank" transform="translate(-51.9 511.862)">
    <path id="Path_40" data-name="Path 40" d="M137.565-511.713a6.88,6.88,0,0,0-5.087,8.5,6.347,6.347,0,0,0,1.74,2.888,6.305,6.305,0,0,0,4.814,2.057,6.249,6.249,0,0,0,4.179-1.411,6.079,6.079,0,0,0,2.221-3.238.882.882,0,0,0-.755-.755c-.427,0-.656.208-1.007.9a5.235,5.235,0,0,1-5.394,2.834,5.224,5.224,0,0,1-4.332-5.93,5.323,5.323,0,0,1,4.026-4.245,5.214,5.214,0,0,1,5.941,3.3c.372.963.941,1.214,1.488.667.361-.361.306-.766-.306-1.991A6.852,6.852,0,0,0,137.565-511.713Z" transform="translate(-71.53)" fill="#c59158"/>
    <path id="Path_41" data-name="Path 41" d="M163.96-482.762a3.4,3.4,0,0,0-1.7,1.258,2.981,2.981,0,0,0-.678,2.144,2.664,2.664,0,0,0,.35,1.663,3.433,3.433,0,0,0,3.249,2,2.738,2.738,0,0,0,1.608-.361,3.652,3.652,0,0,0,1.75-1.761,2.772,2.772,0,0,0,.252-1.488,2.857,2.857,0,0,0-.306-1.608A3.713,3.713,0,0,0,163.96-482.762Zm2.079,1.608a1.918,1.918,0,0,1,1.149,1.969,2.009,2.009,0,0,1-3.7.963,2.153,2.153,0,0,1,.252-2.527A2.132,2.132,0,0,1,166.039-481.154Z" transform="translate(-97.684 -25.735)" fill="#c59158"/>
    <path id="Path_42" data-name="Path 42" d="M280.3-448.716a.765.765,0,0,0,.044,1.138.566.566,0,0,0,.624.208.76.76,0,0,0,.46-1.324A.744.744,0,0,0,280.3-448.716Z" transform="translate(-203.207 -56.017)"/>
    <path id="Path_43" data-name="Path 43" d="M364.542-423.433a3.955,3.955,0,0,0-2.746,2.166,4.391,4.391,0,0,0,0,2.9,3.679,3.679,0,0,0,6.586.284,2.569,2.569,0,0,0,.383-1.74,2.671,2.671,0,0,0-.306-1.63A3.723,3.723,0,0,0,364.542-423.433Zm1.138,1.652a2.257,2.257,0,0,1,.81.459,1.952,1.952,0,0,1,0,3,1.95,1.95,0,0,1-3-.4,2.054,2.054,0,0,1,1.663-3.162A2.937,2.937,0,0,1,365.68-421.781Z" transform="translate(-275.773 -78.707)" fill="#c59158"/>
    <path id="Path_44" data-name="Path 44" d="M313.289-420.644a.63.63,0,0,0-.109.842,1.008,1.008,0,0,0,.821.514c.273,0,.7-.514.7-.853A.809.809,0,0,0,313.289-420.644Z" transform="translate(-232.593 -80.993)"/>
    <path id="Path_45" data-name="Path 45" d="M77.14-418.566c-.274.273-.284.317-.284,1.761v1.488l-.3.055c-.175.033-.635.153-1.028.273s-.744.219-.788.219-.077-.263-.077-.58c0-.47-.055-.635-.252-.821a.78.78,0,0,0-1.072-.033c-.241.2-.263.306-.3,1.4-.033,1.116-.055,1.2-.339,1.51a8.312,8.312,0,0,0-1.193,1.685l-.317.558-.645-.569a12.2,12.2,0,0,0-3.906-2.232,1.328,1.328,0,0,0-1.094-.044,1.442,1.442,0,0,0-.7.536c-.252.361-.252.416-.252,3.632v3.249l-.8.438a16.085,16.085,0,0,0-5.054,4.672,15.893,15.893,0,0,0-2.363,5.744l-.131.766h-1.63c-1.827,0-2.133.088-2.494.689-.208.328-.219.58-.219,4.89s.011,4.562.219,4.89c.394.646.591.689,3.424.689H58.1l.645.952a16.451,16.451,0,0,0,6.094,5.208l.963.46v2.462H59.143c-6.564,0-6.663,0-6.947.23a.738.738,0,0,0,0,1.182l.3.23H95.968l.3-.23a.666.666,0,0,0,.284-.591.666.666,0,0,0-.284-.591c-.284-.219-.427-.23-3.337-.23H89.874l.011-2.057v-2.046l.766-.547a15.727,15.727,0,0,0,5.131-7.166,13.652,13.652,0,0,0,.733-5.044,15.8,15.8,0,0,0-.645-5.9c-.635-2.035-2.451-5.142-3.206-5.492a.83.83,0,0,0-1.083.93,6.882,6.882,0,0,0,.689,1.061,13.86,13.86,0,0,1,2.473,5.8,27.361,27.361,0,0,1,0,5.984,13.537,13.537,0,0,1-5.481,8.818,4.756,4.756,0,0,0-.963.8c-.033.1-.066,1.225-.066,2.516v2.341H83.015l-.131-1.017c-.186-1.368-.306-1.805-.558-1.936a10.613,10.613,0,0,0-1.9-.109c-1.564,0-1.729.022-1.926.219a.818.818,0,0,0,.066,1.193c.252.2.449.23,1.422.23a4.814,4.814,0,0,1,1.171.077,3.353,3.353,0,0,1,.12.711l.077.635H74.328l.077-.635a3.056,3.056,0,0,1,.12-.7c.022-.055.23-.088.459-.088.591,0,1-.339,1-.831,0-.656-.274-.81-1.433-.81a4.712,4.712,0,0,0-1.193.109c-.252.131-.372.569-.558,1.936l-.131,1.017H67.446v-1.674a5.869,5.869,0,0,0-.131-1.849,7.466,7.466,0,0,0-1.368-.722,18.642,18.642,0,0,1-2.188-1.171,15.055,15.055,0,0,1-3.72-3.774c-1.1-1.7-.689-1.532-3.807-1.532h-2.68v-7.877H55.4c2.319,0,2.265.033,2.483-1.422a13.6,13.6,0,0,1,7.188-10.229,4.311,4.311,0,0,0,1.061-.711,27.353,27.353,0,0,0,.109-3.435c0-1.783.022-3.238.055-3.238a6.7,6.7,0,0,1,.777.328,9.52,9.52,0,0,1,2.954,2.1l.755.8.033.875a6.748,6.748,0,0,0,1.554,3.939c.317.284.274.383-.164.383a.938.938,0,0,0-.93.821.9.9,0,0,0,.274.547l.263.273h5.908c3.249,0,5.984-.033,6.083-.066a1.029,1.029,0,0,0,.427-.974c-.1-.416-.449-.6-1.1-.6h-.58l.427-.547a7.543,7.543,0,0,0,.733-1.149c.284-.591.306-.613.635-.547a17.915,17.915,0,0,1,4.715,2.024c.4.23.47.241.766.1a.825.825,0,0,0,.427-1.039c-.208-.591-2.91-1.98-4.858-2.494l-.93-.252-.077-1.083a6.474,6.474,0,0,0-1.794-4.311l-.481-.5v-.886c0-.831-.022-.908-.284-1.116a.776.776,0,0,0-1.313.492c-.055.3-.109.372-.252.317-.1-.044-.514-.164-.941-.274l-.766-.2-.055-1.543c-.055-1.685-.109-1.805-.733-1.936A.566.566,0,0,0,77.14-418.566Zm1.74,5.044a5.184,5.184,0,0,1,3.72,6.247,5.064,5.064,0,0,1-2.144,3l-.667.449h-4.3l-.547-.317a5.369,5.369,0,0,1-2.451-3.61,5.219,5.219,0,0,1,3.72-5.744A5.948,5.948,0,0,1,78.879-413.523Z" transform="translate(0 -82.885)" fill="#fff"/>
    <path id="Path_46" data-name="Path 46" d="M256.52-358.561a4.007,4.007,0,0,0-2.691,2.166,3.2,3.2,0,0,0-.241,1.389,2.636,2.636,0,0,0,.35,1.608,3.63,3.63,0,0,0,1.98,1.849,4.186,4.186,0,0,0,2.855-.109,4.368,4.368,0,0,0,1.718-1.707,4.089,4.089,0,0,0,.208-2.746A3.74,3.74,0,0,0,256.52-358.561Zm1.74,1.893a2.012,2.012,0,0,1,.427,3.074,2.04,2.04,0,0,1-3.479-1.116,2.081,2.081,0,0,1,1.357-2.166,3.654,3.654,0,0,0,.4-.1A2.214,2.214,0,0,1,258.26-356.668Z" transform="translate(-179.621 -136.468)" fill="#fff"/>
    <path id="Path_47" data-name="Path 47" d="M68.478-389.536a3.719,3.719,0,0,0-2.866,2.976,3.645,3.645,0,0,0,4.212,4.223,3.642,3.642,0,0,0,2.582-5.372A3.769,3.769,0,0,0,68.478-389.536Zm1.7,1.827a2.146,2.146,0,0,1,.624.514,2.009,2.009,0,0,1-1.586,3.26,1.989,1.989,0,0,1-1.422-3.413A1.992,1.992,0,0,1,70.174-387.709Z" transform="translate(-12.158 -108.884)" fill="#c59158"/>
    <path id="Path_48" data-name="Path 48" d="M135.219-211.848c-.208.208-.219.361-.219,2.615,0,1.324.033,2.483.066,2.582a.862.862,0,0,0,1.007.372c.514-.175.569-.449.569-2.932,0-2.144-.011-2.3-.23-2.571A.818.818,0,0,0,135.219-211.848Z" transform="translate(-74.009 -266.99)" fill="#fff"/>
  </g>
</svg>
