<svg xmlns="http://www.w3.org/2000/svg" width="55.734" height="55.686" viewBox="0 0 55.734 55.686">
  <g id="resume" transform="translate(-0.128 511.776)">
    <path id="Path_49" data-name="Path 49" d="M2.347-511.6a3.241,3.241,0,0,0-2.124,2.342c-.087.4-.109,7.635-.087,25.671l.033,25.1.229.5a3.848,3.848,0,0,0,1.666,1.666l.5.229H43.843l.5-.229a3.848,3.848,0,0,0,1.666-1.666c.218-.479.229-.654.261-5.021.022-4.988.033-4.923-.653-5.261a.7.7,0,0,0-.762-.044c-.708.294-.686.109-.741,5l-.054,4.465-.359.316-.349.316-20.2-.022-20.2-.033-.294-.3-.3-.294v-50.1l.3-.294.294-.3,20.2-.033,20.2-.022.349.316.359.316.054,6.382.054,6.382.294.283a1.059,1.059,0,0,0,1.481,0l.294-.283v-6.568c0-6.48,0-6.568-.229-7.058a3.848,3.848,0,0,0-1.666-1.666l-.5-.229-20.476-.022C4.166-511.789,2.859-511.778,2.347-511.6Z" transform="translate(0)" fill="#fff"/>
    <path id="Path_50" data-name="Path 50" d="M128.668-457.524a10.157,10.157,0,0,0-7.929,7.428,11.7,11.7,0,0,0,.011,4.879,10.241,10.241,0,0,0,7.482,7.319,13.233,13.233,0,0,0,4.444,0,10.158,10.158,0,0,0,6.818-5.533,8.23,8.23,0,0,0,.915-4.237,7.96,7.96,0,0,0-.24-2.429,10.2,10.2,0,0,0-7.286-7.275A11.737,11.737,0,0,0,128.668-457.524Zm4.128,2.385a7.313,7.313,0,0,1,3.159,1.971,7.26,7.26,0,0,1,1.982,3.213,5.607,5.607,0,0,1,.294,2.233,6.941,6.941,0,0,1-.762,3.485c-.654,1.318-.566,1.3-1.492.316a8.069,8.069,0,0,0-2.3-1.71c-.054-.022.065-.37.272-.784a3.3,3.3,0,0,0,.4-1.743,4.293,4.293,0,0,0-.7-2.854,3.7,3.7,0,0,0-3.2-1.666c-2.44,0-4.03,1.873-3.9,4.585a3.262,3.262,0,0,0,.414,1.688c.2.4.316.752.261.773a8.069,8.069,0,0,0-2.3,1.71c-.926.98-.839,1-1.492-.316a6.741,6.741,0,0,1-.752-3.54,5.135,5.135,0,0,1,.327-2.309,7.043,7.043,0,0,1,1.939-3.082,7.147,7.147,0,0,1,3.159-1.96,5.959,5.959,0,0,1,2.668-.327A7.24,7.24,0,0,1,132.8-455.139Zm-1.329,4.912a2.181,2.181,0,0,1,.73,1.775,1.86,1.86,0,0,1-.719,1.721,1.323,1.323,0,0,1-1.024.316c-1.1,0-1.743-.741-1.743-2a1.993,1.993,0,0,1,1.035-1.982A2.6,2.6,0,0,1,131.467-450.227Zm.24,6.208a5.641,5.641,0,0,1,3.224,2.2l.24.392-.261.2a10.216,10.216,0,0,1-2.494,1.144,7.133,7.133,0,0,1-1.96.2,7.133,7.133,0,0,1-1.96-.2A10.216,10.216,0,0,1,126-441.231l-.261-.2.24-.392a5.775,5.775,0,0,1,.828-.937A5.391,5.391,0,0,1,131.707-444.019Z" transform="translate(-107.251 -48.231)" fill="#c59158"/>
    <path id="Path_51" data-name="Path 51" d="M315.6-386.63a5.054,5.054,0,0,0-2.211,1.34c-.6.7-14.268,24.332-14.42,24.952-.131.555-.969,8.049-.969,8.7a1.017,1.017,0,0,0,.926,1.122c.479.054.523.022,6.535-4.433l1.427-1.046,6.873-11.926c3.779-6.557,6.971-12.111,7.09-12.362a4.57,4.57,0,0,0-2.265-6.077,3.447,3.447,0,0,0-1.634-.359A6.4,6.4,0,0,0,315.6-386.63Zm2.037,2.222a2.256,2.256,0,0,1,1.274,1.274c.37.871.272,1.459-.49,2.81a5.765,5.765,0,0,1-.719,1.089c-.065,0-1.013-.523-2.113-1.154l-2.015-1.155.207-.349c.109-.185.338-.588.512-.882a3.469,3.469,0,0,1,1.383-1.568A2.6,2.6,0,0,1,317.637-384.408Zm-2.919,6.034a7.955,7.955,0,0,1,1.819,1.22c-.033.142-10.641,18.57-10.826,18.8-.076.087-.653-.2-2.113-1.035a16.94,16.94,0,0,1-2-1.274c0-.065,1.351-2.461,3.017-5.337,8.212-14.235,7.874-13.68,8.071-13.56C312.78-379.507,313.706-378.973,314.718-378.374Zm-10.739,21.783c0,.076-3.5,2.636-3.54,2.592s.381-3.812.457-4.182c.044-.218.142-.185,1.568.643A14.162,14.162,0,0,1,303.979-356.591Z" transform="translate(-265.43 -111.436)" fill="#fff"/>
    <path id="Path_52" data-name="Path 52" d="M72.235-241.793a1.138,1.138,0,0,0-.545,1.231,1.05,1.05,0,0,0,.817.762,1.067,1.067,0,0,0,.632-2.015A.9.9,0,0,0,72.235-241.793Z" transform="translate(-63.735 -240.459)" fill="#fff"/>
    <path id="Path_53" data-name="Path 53" d="M115.123-241.9a1.056,1.056,0,0,0-.349,1.721l.294.3,8.114.033,8.1.022.359-.316a.824.824,0,0,0,.359-.773.824.824,0,0,0-.359-.773L131.3-242l-7.983.011C118.935-241.989,115.243-241.946,115.123-241.9Z" transform="translate(-101.885 -240.393)" fill="#fff"/>
    <path id="Path_54" data-name="Path 54" d="M72.235-185.793a1.138,1.138,0,0,0-.545,1.231,1.05,1.05,0,0,0,.817.762,1.067,1.067,0,0,0,.632-2.015A.9.9,0,0,0,72.235-185.793Z" transform="translate(-63.735 -290.36)" fill="#fff"/>
    <path id="Path_55" data-name="Path 55" d="M115.123-185.9a1.056,1.056,0,0,0-.349,1.721l.294.3,8.114.033,8.1.022.359-.316a.824.824,0,0,0,.359-.773.824.824,0,0,0-.359-.773L131.3-186l-7.983.011C118.935-185.989,115.243-185.946,115.123-185.9Z" transform="translate(-101.885 -290.294)" fill="#fff"/>
    <path id="Path_56" data-name="Path 56" d="M72.235-129.793a1.138,1.138,0,0,0-.545,1.231,1.05,1.05,0,0,0,.817.762,1.067,1.067,0,0,0,.632-2.015A.9.9,0,0,0,72.235-129.793Z" transform="translate(-63.735 -340.261)" fill="#fff"/>
    <path id="Path_57" data-name="Path 57" d="M115.123-129.9a1.056,1.056,0,0,0-.349,1.721l.294.3,8.114.033,8.1.022.359-.316a.824.824,0,0,0,.359-.773.824.824,0,0,0-.359-.773L131.3-130l-7.983.011C118.935-129.989,115.243-129.946,115.123-129.9Z" transform="translate(-101.885 -340.195)" fill="#fff"/>
    <path id="Path_58" data-name="Path 58" d="M202.7-73.891a1.286,1.286,0,0,0-.7.991,1.1,1.1,0,0,0,.316.664l.316.359,3.333.033,3.322.033.359-.327a.824.824,0,0,0,.359-.773.824.824,0,0,0-.359-.773L209.3-74l-3.191.011A33.505,33.505,0,0,0,202.7-73.891Z" transform="translate(-179.885 -390.096)" fill="#fff"/>
  </g>
</svg>
