<svg xmlns="http://www.w3.org/2000/svg" width="55.958" height="55.523" viewBox="0 0 55.958 55.523">
  <g id="friend" transform="translate(-0.678 511.821)">
    <path id="Path_29" data-name="Path 29" d="M190.344-511.775a21.647,21.647,0,0,0-7.572,1.962,11.838,11.838,0,0,0-5.961,5.348c-2.718,5.5,2.071,11.44,10.63,13.161.756.153,1.841.318,2.411.362l1.041.088,1.885,2.959c1.041,1.622,1.972,3.025,2.082,3.09a.849.849,0,0,0,1.052-.11c.2-.2.362-.811.888-3.331l.647-3.09.559-.131a25.129,25.129,0,0,0,3.868-1.359,11.851,11.851,0,0,0,6.093-5.863,7.394,7.394,0,0,0-1.381-7.539c-2.29-2.882-6.926-5.008-12.01-5.5A34.558,34.558,0,0,0,190.344-511.775Zm4.592,1.852c5.26.614,9.643,2.992,11.134,6.027,1.173,2.4.734,4.745-1.3,6.882a14.807,14.807,0,0,1-7.331,3.868c-.953.23-1.282.351-1.4.537a19.806,19.806,0,0,0-.625,2.444c-.252,1.216-.482,2.214-.515,2.214s-.69-.986-1.468-2.192a21.22,21.22,0,0,0-1.589-2.29,8.746,8.746,0,0,0-1.556-.23c-6.093-.548-10.925-3.277-12.175-6.882a6.2,6.2,0,0,1,0-3.572,7.078,7.078,0,0,1,1.72-2.641C182.925-508.948,189-510.613,194.935-509.923Z" transform="translate(-156.153 0)" fill="#fff"/>
    <path id="Path_30" data-name="Path 30" d="M272-455.123v.877h4.383V-456H272Z" transform="translate(-241.59 -49.704)" fill="#fff"/>
    <path id="Path_31" data-name="Path 31" d="M328-455.123v.877h1.753V-456H328Z" transform="translate(-291.453 -49.704)" fill="#fff"/>
    <path id="Path_32" data-name="Path 32" d="M360-455.123v.877h4.383V-456H360Z" transform="translate(-319.946 -49.704)" fill="#fff"/>
    <path id="Path_33" data-name="Path 33" d="M248-423.123v.877h10.52V-424H248Z" transform="translate(-220.22 -78.197)" fill="#fff"/>
    <path id="Path_34" data-name="Path 34" d="M360-423.123v.877h4.383V-424H360Z" transform="translate(-319.946 -78.197)" fill="#fff"/>
    <path id="Path_35" data-name="Path 35" d="M248-391.123v.877h3.507V-392H248Z" transform="translate(-220.22 -106.691)" fill="#fff"/>
    <path id="Path_36" data-name="Path 36" d="M296-391.123v.877h9.643V-392H296Z" transform="translate(-262.96 -106.691)" fill="#fff"/>
    <path id="Path_37" data-name="Path 37" d="M103.009-465.638c-.449.208-1.216.6-1.7.888-5.194,3.156-6.641,8.043-3.616,12.273a13.573,13.573,0,0,0,4.756,3.792c.57.274.778.416.734.548-.132.46-.931,4.2-.931,4.383a.981.981,0,0,0,.833.767,18.912,18.912,0,0,0,3.222-1.863l2.915-1.852.986.1a24.118,24.118,0,0,0,6.838-.351c1.052-.2,1.3-.274,1.556-.537a.737.737,0,0,0,.022-1.162c-.318-.318-.307-.318-2.564.088a30.2,30.2,0,0,1-6.3.175l-.986-.088-2.115,1.337c-1.162.734-2.126,1.315-2.148,1.293a13.527,13.527,0,0,1,.274-1.414,16.053,16.053,0,0,0,.318-1.611c0-.362-.416-.734-1.205-1.074a14.686,14.686,0,0,1-3.112-1.852c-3.54-2.838-3.857-6.663-.811-9.72a12.514,12.514,0,0,1,3.419-2.345c1.4-.7,1.6-.91,1.446-1.512a1.1,1.1,0,0,0-.855-.625A6.335,6.335,0,0,0,103.009-465.638Z" transform="translate(-84.992 -40.8)" fill="#fff"/>
    <path id="Path_39" data-name="Path 39" d="M299.409-247.737a6.166,6.166,0,0,0-4.635,6.29,5.921,5.921,0,0,0,1.775,3.967l.6.614-.734.23a9.568,9.568,0,0,0-5.961,4.778c-.526,1.052-.581,1.26-1.227,4.427-.789,3.934-.811,3.726.471,4.2a35.657,35.657,0,0,0,8.252,1.852,44.771,44.771,0,0,0,7.419-.175,34.8,34.8,0,0,0,6.685-1.677c1.282-.471,1.26-.263.471-4.2-.647-3.2-.69-3.364-1.249-4.482a6.463,6.463,0,0,0-1.622-2.192,9.841,9.841,0,0,0-4.077-2.455l-.975-.351.5-.471a6.8,6.8,0,0,0,1.6-2.509,7.069,7.069,0,0,0,.044-3.638,6.5,6.5,0,0,0-1.545-2.575A6.253,6.253,0,0,0,299.409-247.737Zm3.266,1.994a4.188,4.188,0,0,1,2.126,2.082,3.031,3.031,0,0,1,.405,1.885,3.031,3.031,0,0,1-.405,1.885,4.212,4.212,0,0,1-2.148,2.093,3.039,3.039,0,0,1-1.775.351,3.039,3.039,0,0,1-1.775-.351,4.211,4.211,0,0,1-2.148-2.093,3.014,3.014,0,0,1-.405-1.874,3.058,3.058,0,0,1,.351-1.786,4.232,4.232,0,0,1,1.885-2.038,3.746,3.746,0,0,1,2.334-.526A3.58,3.58,0,0,1,302.674-245.743Zm.57,10.377a9.217,9.217,0,0,1,6.115,3.594c.614.964.877,1.775,1.381,4.3.241,1.271.471,2.389.5,2.488.044.153-.164.252-1.183.57a33.688,33.688,0,0,1-4.909,1.129,42.844,42.844,0,0,1-8.547-.011,36.33,36.33,0,0,1-5.074-1.162c-.866-.274-1.063-.373-1.019-.526.033-.1.263-1.216.5-2.488s.581-2.608.712-2.981a6.873,6.873,0,0,1,3.441-3.748,13.215,13.215,0,0,1,4.668-1.37A16.02,16.02,0,0,1,303.244-235.365Z" transform="translate(-256.44 -234.998)" fill="#fff"/>
    <path id="Path_38" data-name="Path 38" d="M11.409-247.737a6.166,6.166,0,0,0-4.635,6.29,5.921,5.921,0,0,0,1.775,3.967l.6.614-.734.23a9.567,9.567,0,0,0-5.961,4.778c-.526,1.052-.581,1.26-1.227,4.427-.789,3.934-.811,3.726.471,4.2a38,38,0,0,0,5.37,1.447,29.192,29.192,0,0,0,6.717.471,29.818,29.818,0,0,0,9.917-1.8c1.688-.592,1.622-.285.855-4.153a24.169,24.169,0,0,0-1-4.044c-1.118-2.575-2.915-4.153-5.994-5.26l-.964-.34.5-.471a6.8,6.8,0,0,0,1.6-2.509,7.068,7.068,0,0,0,.044-3.638,6.5,6.5,0,0,0-1.545-2.575A6.253,6.253,0,0,0,11.409-247.737Zm3.266,1.994a4.188,4.188,0,0,1,2.126,2.082,3.031,3.031,0,0,1,.405,1.885,3.031,3.031,0,0,1-.405,1.885,4.211,4.211,0,0,1-2.148,2.093,3.039,3.039,0,0,1-1.775.351A3.039,3.039,0,0,1,11.1-237.8a4.211,4.211,0,0,1-2.148-2.093,3.014,3.014,0,0,1-.405-1.874,3.057,3.057,0,0,1,.351-1.786,4.232,4.232,0,0,1,1.885-2.038,3.746,3.746,0,0,1,2.334-.526A3.58,3.58,0,0,1,14.674-245.743Zm.57,10.377a9.217,9.217,0,0,1,6.115,3.594c.614.964.877,1.775,1.381,4.3.241,1.271.471,2.389.5,2.488.044.153-.164.252-1.183.57a33.688,33.688,0,0,1-4.909,1.129A42.844,42.844,0,0,1,8.6-223.3a36.33,36.33,0,0,1-5.074-1.162c-.866-.274-1.063-.373-1.019-.526.033-.1.263-1.216.5-2.488s.581-2.608.712-2.981A6.873,6.873,0,0,1,7.168-234.2a13.215,13.215,0,0,1,4.668-1.37A16.02,16.02,0,0,1,15.244-235.365Z" transform="translate(0 -234.998)" fill="#c59158"/>
  </g>
</svg>
